<?xml version="1.0" encoding="utf-8"?>
<!-- Svg Vector Icons : http://www.onlinewebfonts.com/icon -->
<!DOCTYPE svg PUBLIC "-//W3C//DTD SVG 1.1//EN" "http://www.w3.org/Graphics/SVG/1.1/DTD/svg11.dtd">
<svg version="1.1" xmlns="http://www.w3.org/2000/svg" xmlns:xlink="http://www.w3.org/1999/xlink" x="0px" y="0px" viewBox="0 0 1000 1000" enable-background="new 0 0 1000 1000" xml:space="preserve">
<metadata> Svg Vector Icons : http://www.onlinewebfonts.com/icon </metadata>
<g><g transform="translate(0.000000,511.000000) scale(0.100000,-0.100000)"><path d="M640.4,4395.7c-233.3-73.7-412.6-235.8-493.7-447C102.5,3833.2,100,3708,100,95v-3733.3l58.9-127.7c66.3-149.8,228.4-309.5,390.5-383.1l115.4-54H5000h4335.1l115.4,54c162.1,73.7,324.2,233.3,390.5,383.1l59,127.7V95c0,3620.3-2.5,3735.8-46.7,3856.1c-61.4,159.6-230.9,336.5-390.5,407.7l-127.7,58.9l-4298.3,4.9C1617.9,4425.1,719,4420.2,640.4,4395.7z M9313,3997.8c46.7-22.1,108.1-76.1,140-117.9l54-76.1V107.3v-3696.5l-54-76.1c-120.3-169.5,230.9-157.2-4453-157.2c-4683.9,0-4332.6-12.3-4453,157.2l-54,76.1V107.3v3696.5l54,76.1c120.4,169.5-235.8,157.2,4448.1,157.2C8851.2,4037.1,9236.8,4034.6,9313,3997.8z"/><path d="M7615.8,3582.7c-120.4-117.9-56.5-294.7,115.4-321.8c181.7-29.5,287.4,189.1,154.7,321.8c-36.8,39.3-88.4,61.4-135.1,61.4S7652.6,3622,7615.8,3582.7z"/><path d="M8401.8,3582.7c-39.3-36.8-61.4-88.4-61.4-135.1c0-88.4,93.3-196.5,169.5-196.5c140,0,243.1,125.3,208.8,255.4C8684.2,3646.6,8507.4,3688.3,8401.8,3582.7z"/><path d="M873.7-285.7v-3143.9H5000h4126.3v3143.9v3143.8H5000H873.7V-285.7z M8733.3-285.7v-2750.9H5000H1266.7v2750.9v2750.9H5000h3733.3V-285.7z"/><path d="M5140,1404.1c-36.8-206.3-211.2-1159.3-385.6-2119.6c-174.4-957.9-319.3-1751.2-319.3-1758.6c0-17.2,366-83.5,375.8-68.8c4.9,4.9,54,265.3,110.5,574.7c56.5,311.9,230.9,1264.9,385.6,2122.1c157.2,854.7,282.5,1557.2,277.5,1562.1c-12.3,9.8-297.2,61.4-336.5,61.4C5216.1,1777.4,5194,1701.3,5140,1404.1z"/><path d="M3106.3,95c-424.9-304.6-771.2-564.9-771.2-577.2c0-22.1,1530.2-1129.8,1559.6-1129.8c14.7,2.4,206.3,280,208.8,302.1c0,9.8-248.1,194-552.6,412.6c-304.6,216.1-552.6,402.8-552.6,415.1c0,12.3,243.2,194,540.4,405.3c297.2,213.7,547.7,393,557.5,402.8c19.6,17.2-174.4,321.8-203.9,321.8C3884.9,647.6,3531.2,399.5,3106.3,95z"/><path d="M5987.4,497.8c-59-83.5-98.3-159.6-86-169.5c9.8-9.8,262.8-191.6,560-405.2c297.2-211.2,540.4-393,540.4-405.3c0-12.3-243.2-194-540.4-405.3c-297.2-213.7-547.7-393-557.5-402.8c-17.2-14.7,174.4-321.7,201.4-321.7c22.1,0,1559.6,1105.3,1567,1124.9c4.9,19.6-1493.3,1102.8-1554.7,1124.9C6105.3,642.7,6046.3,578.8,5987.4,497.8z"/></g></g>
</svg>