<svg id="Layer_1" enable-background="new 0 0 512 512" height="512" viewBox="0 0 512 512" width="512" xmlns="http://www.w3.org/2000/svg"><g><path d="m494.983 497.25s-8.8.63-24.85 1.53c-65.34 3.64-250.89 11.57-453.03-1.53-21.51-133.11 0-249.6 0-249.6s211.62-15.28 453.43-1.49c8.12.46 16.27.96 24.45 1.49 0 0 21.51 116.491 0 249.6z" fill="#96c9d6"/><path d="m494.983 497.25s-8.8.63-24.85 1.53c13.926-126.31 3.66-217.45.4-252.62 8.12.46 16.27.96 24.45 1.49 0 0 21.51 116.491 0 249.6z" fill="#77a5af"/><g><g fill="#edf8f9"><path d="m53.478 283.047s-2.366 17.129 0 36.208c19.066 2.367 36.184 0 36.184 0s2.366-17.129 0-36.208c-19.066-2.367-36.184 0-36.184 0z"/><path d="m163.495 319.255s2.366-17.129 0-36.208c-19.066-2.367-36.184 0-36.184 0s-2.366 17.129 0 36.208c19.066 2.367 36.184 0 36.184 0z"/><path d="m53.478 354.345s-2.366 17.129 0 36.208c19.066 2.368 36.184 0 36.184 0s2.366-17.129 0-36.208c-19.066-2.367-36.184 0-36.184 0z"/><path d="m163.495 390.553s2.366-17.129 0-36.208c-19.066-2.367-36.184 0-36.184 0s-2.366 17.129 0 36.208c19.066 2.368 36.184 0 36.184 0z"/><path d="m53.478 425.643s-2.366 17.129 0 36.208c19.066 2.367 36.184 0 36.184 0s2.366-17.129 0-36.208c-19.066-2.367-36.184 0-36.184 0z"/><path d="m237.328 319.255s2.366-17.129 0-36.208c-19.066-2.367-36.184 0-36.184 0s-2.366 17.129 0 36.208c19.067 2.367 36.184 0 36.184 0z"/><path d="m274.978 283.047s-2.366 17.129 0 36.208c19.066 2.367 36.184 0 36.184 0s2.366-17.129 0-36.208c-19.066-2.367-36.184 0-36.184 0z"/><path d="m237.328 390.553s2.366-17.129 0-36.208c-19.066-2.367-36.184 0-36.184 0s-2.366 17.129 0 36.208c19.067 2.368 36.184 0 36.184 0z"/><path d="m274.978 354.345s-2.366 17.129 0 36.208c19.066 2.368 36.184 0 36.184 0s2.366-17.129 0-36.208c-19.066-2.367-36.184 0-36.184 0z"/><path d="m348.811 283.047s-2.366 17.129 0 36.208c19.066 2.367 36.184 0 36.184 0s2.366-17.129 0-36.208c-19.066-2.367-36.184 0-36.184 0z"/><path d="m348.811 354.345s-2.366 17.129 0 36.208c19.066 2.368 36.184 0 36.184 0s2.366-17.129 0-36.208c-19.066-2.367-36.184 0-36.184 0z"/><path d="m348.811 425.643s-2.366 17.129 0 36.208c19.066 2.367 36.184 0 36.184 0s2.366-17.129 0-36.208c-19.066-2.367-36.184 0-36.184 0z"/><path d="m422.644 425.643s-2.366 17.129 0 36.208c19.066 2.367 36.184 0 36.184 0s2.366-17.129 0-36.208c-19.066-2.367-36.184 0-36.184 0z"/></g><path d="m458.828 390.553c3.725-55.961 0-107.506 0-107.506-19.066-2.367-36.184 0-36.184 0s-4.071 51.75 0 107.506c19.066 2.368 36.184 0 36.184 0z" fill="#66f1ff"/></g><path d="m430.403 210.52h-348.5c68.35-42.2 109.25-96.71 109.25-96.71h130s40.9 54.51 109.25 96.71z" fill="#edf8f9"/><path d="m430.403 210.52h-46c-68.35-42.2-96.25-96.71-96.25-96.71h33s40.9 54.51 109.25 96.71z" fill="#daeeef"/><path d="m294.193 69.94c0 21.03-17.03 38.07-38.04 38.07-4.19 0-8.23-.68-12-1.93-15.13-5.03-26.04-19.31-26.04-36.14z" fill="#96c9d6"/><path d="m294.193 69.94c0 21.03-17.03 38.07-38.04 38.07-4.19 0-8.23-.68-12-1.93 15.13-5.03 26.04-19.31 26.04-36.14z" fill="#77a5af"/><path d="m354.953 10.82c-1.57 33.36-4.51 54.65-4.51 54.65s-11.8 1.63-31.61 3.11c-34.62 2.6-93.7 4.73-156.88-3.11-2.33-18.76-3.78-37.16-4.6-54.66v-.01c24.22-1.71 57.68-3.3 98.69-3.3 20.57 0 39.23.4 55.79 1.02 4.12.15 8.1.32 11.95.5 11.64.52 22.06 1.15 31.17 1.8z" fill="#6cf4cd"/><path d="m354.953 10.82c-1.57 33.36-4.51 54.65-4.51 54.65s-11.8 1.63-31.61 3.11c.77-6.12 3.35-27.96 4.95-59.56 11.64.52 22.06 1.15 31.17 1.8z" fill="#36ddbd"/><path d="m311.161 425.643c-103.852-3.126-183.85 0-183.85 0s-2.366 17.129 0 36.208c0 0 79.998 3.125 183.85 0 0 0 2.366-17.129 0-36.208z" fill="#66f1ff"/></g><g><path d="m381.562 495.033c-86.288 2.651-217.964 3.924-358.09-4.882-16.996-111.367-3.838-210.933-.042-235.41 24.051-1.543 119.324-7.112 244.001-6.832h.016c4.136 0 7.493-3.348 7.502-7.485.008-4.142-3.344-7.506-7.487-7.515-144.599-.328-249.959 7.189-251.007 7.265-3.406.246-6.217 2.761-6.837 6.118-.218 1.178-21.512 119.3-.029 252.159.558 3.452 3.43 6.061 6.92 6.287 84.353 5.465 165.833 7.262 236.515 7.262 49.1 0 92.991-.867 129-1.975 4.141-.127 7.395-3.586 7.268-7.727-.128-4.139-3.599-7.411-7.73-7.265z"/><path d="m502.382 246.291c-.624-3.378-3.463-5.9-6.892-6.122-60.27-3.905-124.23-6.263-190.104-7.009h-.087c-4.103 0-7.453 3.303-7.5 7.415-.047 4.142 3.274 7.537 7.417 7.585 63.445.718 125.097 2.937 183.358 6.598 3.804 24.491 16.964 123.961-.05 235.411-10.478.676-34.354 2.105-67.99 3.474-4.14.169-7.36 3.66-7.191 7.799.164 4.035 3.488 7.195 7.49 7.195.103 0 .207-.002.31-.006 46.185-1.879 74.124-3.878 74.401-3.898 3.469-.25 6.311-2.852 6.866-6.283 21.484-132.858.19-250.981-.028-252.159z"/><path d="m112.958 22.549c.348 0 .7-.024 1.054-.074.194-.027 13.01-1.804 36.177-3.616.924 16.289 2.348 32.243 4.244 47.53.423 3.41 3.11 6.097 6.521 6.52 17.135 2.127 34.004 3.522 50.196 4.375 3.519 21.65 22.34 38.23 44.96 38.23 22.656 0 41.5-16.632 44.976-38.333 30.525-1.605 49.948-4.226 50.364-4.284 3.328-.461 5.944-3.076 6.404-6.403.112-.813 2.564-18.773 4.178-47.606 22.997 1.799 35.698 3.551 35.955 3.588.355.05.706.074 1.055.074 3.679 0 6.892-2.709 7.42-6.455.578-4.102-2.279-7.895-6.381-8.473-.541-.077-55.108-7.622-144.081-7.622-7.538 0-15.131.054-22.567.161-4.143.06-7.453 3.465-7.393 7.607.059 4.106 3.406 7.393 7.499 7.393.036 0 .073 0 .11-.001 7.364-.106 14.885-.16 22.351-.16 36.832 0 67.652 1.302 91.063 2.819-1.065 19.052-2.524 33.448-3.376 40.911-20.612 2.339-94.23 9.273-175.06-.011-1.519-13.24-2.682-26.955-3.471-40.927 9.236-.597 19.614-1.16 31.048-1.619 4.14-.167 7.361-3.656 7.195-7.796-.167-4.138-3.654-7.355-7.798-7.192-52.581 2.114-82.438 6.261-83.683 6.437-4.102.578-6.959 4.371-6.381 8.473.529 3.746 3.741 6.454 7.421 6.454zm141.628 55.856c11.016 0 21.42-.21 31.032-.547-3.493 13.032-15.399 22.655-29.508 22.655-14.078 0-25.962-9.579-29.485-22.567 9.659.321 19.011.459 27.961.459z"/><path d="m81.814 218.023c1.344 0 2.705-.361 3.934-1.119 68.793-42.458 109.639-96.32 111.344-98.592 2.486-3.313 1.815-8.011-1.497-10.497-3.312-2.487-8.014-1.818-10.503 1.492-.401.535-40.958 53.934-107.226 94.833-3.525 2.176-4.619 6.797-2.443 10.321 1.419 2.298 3.876 3.562 6.391 3.562z"/><path d="m327.13 109.31c-2.487-3.313-7.189-3.985-10.504-1.498-3.314 2.485-3.985 7.187-1.499 10.5 1.706 2.272 42.551 56.135 111.344 98.592 1.228.758 2.589 1.119 3.934 1.119 2.515 0 4.973-1.265 6.391-3.562 2.176-3.524 1.083-8.146-2.443-10.321-66.174-40.841-106.709-94.148-107.223-94.83z"/><path d="m225.28 136.793c-.119.247-12.026 24.904-20.658 38.291-2.245 3.481-1.242 8.123 2.241 10.367 1.257.811 2.665 1.197 4.058 1.197 2.464 0 4.878-1.213 6.312-3.438 9.13-14.159 21.061-38.863 21.564-39.908 1.798-3.731.23-8.214-3.503-10.012-3.732-1.799-8.216-.229-10.014 3.503z"/><path d="m305.137 185.451c3.482-2.244 4.486-6.886 2.241-10.367-8.625-13.376-20.539-38.043-20.658-38.291-1.798-3.732-6.283-5.299-10.015-3.502-3.733 1.798-5.301 6.28-3.502 10.012.504 1.045 12.434 25.748 21.564 39.908 1.434 2.225 3.848 3.438 6.312 3.438 1.393-.001 2.801-.388 4.058-1.198z"/><path d="m97.016 282.127c-.423-3.41-3.11-6.097-6.52-6.52-19.824-2.463-37.407-.09-38.146.013-3.328.461-5.945 3.076-6.404 6.403-.102.739-2.472 18.332-.013 38.158.423 3.41 3.109 6.097 6.52 6.52 6.721.835 13.183 1.113 18.821 1.113 10.988 0 18.837-1.059 19.325-1.126 3.328-.461 5.944-3.076 6.404-6.403.102-.74 2.472-18.332.013-38.158zm-14.316 30.263c-5.215.38-13.408.699-22.466.015-.685-9.072-.365-17.275.014-22.492 5.204-.38 13.382-.699 22.466-.011.685 9.07.365 17.271-.014 22.488z"/><path d="m126.307 326.701c6.721.835 13.183 1.113 18.821 1.113 10.988 0 18.837-1.059 19.325-1.126 3.328-.461 5.944-3.076 6.404-6.403.102-.739 2.473-18.331.013-38.158-.423-3.41-3.11-6.097-6.52-6.52-19.824-2.463-37.407-.09-38.146.013-3.328.461-5.945 3.076-6.404 6.403-.102.739-2.472 18.332-.013 38.158.422 3.41 3.108 6.097 6.52 6.52zm7.795-36.788c5.204-.38 13.382-.699 22.466-.011.685 9.069.366 17.271-.014 22.488-5.216.38-13.409.699-22.466.015-.685-9.073-.365-17.275.014-22.492z"/><path d="m97.016 353.427c-.423-3.41-3.109-6.097-6.52-6.52-19.82-2.462-37.408-.09-38.147.013-3.328.461-5.944 3.076-6.404 6.403-.102.739-2.472 18.331-.013 38.158.423 3.41 3.11 6.097 6.52 6.52 6.722.835 13.184 1.113 18.821 1.113 10.988 0 18.836-1.059 19.325-1.126 3.328-.461 5.945-3.076 6.404-6.403.103-.74 2.473-18.333.014-38.158zm-14.316 30.268c-5.203.381-13.381.701-22.466.011-.685-9.069-.365-17.271.014-22.488 5.214-.379 13.409-.699 22.466-.015.685 9.072.365 17.275-.014 22.492z"/><path d="m119.786 391.481c.423 3.41 3.11 6.097 6.52 6.52 6.722.835 13.184 1.113 18.821 1.113 10.988 0 18.836-1.059 19.325-1.126 3.328-.461 5.944-3.076 6.404-6.403.102-.739 2.473-18.332.013-38.158-.423-3.41-3.11-6.097-6.52-6.52-19.82-2.462-37.408-.09-38.147.013-3.328.461-5.944 3.076-6.404 6.403-.101.739-2.471 18.331-.012 38.158zm14.316-30.263c5.214-.379 13.409-.696 22.466-.015.685 9.072.365 17.275-.014 22.492-5.203.381-13.381.701-22.466.011-.685-9.07-.365-17.271.014-22.488z"/><path d="m90.495 418.206c-19.824-2.464-37.407-.09-38.146.013-3.328.461-5.944 3.076-6.404 6.403-.102.739-2.472 18.331-.013 38.158.423 3.41 3.11 6.097 6.52 6.52 6.722.835 13.184 1.113 18.821 1.113 10.988 0 18.836-1.059 19.325-1.126 3.328-.461 5.944-3.076 6.404-6.403.102-.739 2.472-18.331.013-38.158-.422-3.411-3.109-6.097-6.52-6.52zm-7.795 36.787c-5.203.381-13.381.701-22.466.011-.685-9.072-.365-17.276.014-22.492 5.204-.38 13.382-.7 22.466-.011.685 9.072.365 17.276-.014 22.492z"/><path d="m200.161 326.701c6.721.835 13.183 1.113 18.821 1.113 10.988 0 18.837-1.059 19.325-1.126 3.328-.461 5.944-3.076 6.404-6.403.102-.739 2.472-18.331.013-38.158-.423-3.41-3.11-6.097-6.52-6.52-19.823-2.463-37.408-.09-38.146.013-3.328.461-5.945 3.076-6.404 6.403-.102.739-2.472 18.332-.013 38.158.423 3.41 3.109 6.097 6.52 6.52zm7.796-36.788c5.204-.38 13.382-.699 22.466-.011.685 9.069.365 17.271-.014 22.488-5.214.38-13.408.699-22.466.015-.686-9.073-.366-17.275.014-22.492z"/><path d="m318.579 282.127c-.423-3.41-3.11-6.097-6.52-6.52-19.823-2.463-37.408-.09-38.146.013-3.328.461-5.945 3.076-6.404 6.403-.102.739-2.472 18.332-.013 38.158.423 3.41 3.109 6.097 6.52 6.52 6.722.835 13.184 1.113 18.822 1.113 10.987 0 18.836-1.059 19.325-1.126 3.328-.461 5.944-3.076 6.403-6.403.102-.74 2.473-18.332.013-38.158zm-14.316 30.263c-5.215.38-13.408.699-22.466.015-.685-9.072-.365-17.275.014-22.492 5.204-.38 13.382-.699 22.466-.011.685 9.07.366 17.271-.014 22.488z"/><path d="m193.641 391.481c.423 3.41 3.11 6.097 6.52 6.52 6.722.835 13.184 1.113 18.821 1.113 10.988 0 18.836-1.059 19.325-1.126 3.328-.461 5.945-3.076 6.404-6.403.102-.739 2.472-18.332.013-38.158-.423-3.41-3.109-6.097-6.52-6.52-19.821-2.462-37.408-.09-38.147.013-3.328.461-5.944 3.076-6.404 6.403-.101.739-2.471 18.331-.012 38.158zm14.316-30.263c5.214-.379 13.409-.699 22.466-.015.685 9.072.365 17.275-.014 22.492-5.203.381-13.381.701-22.466.011-.685-9.07-.366-17.271.014-22.488z"/><path d="m318.579 353.427c-.423-3.41-3.11-6.097-6.52-6.52-19.821-2.462-37.408-.09-38.147.013-3.328.461-5.944 3.076-6.404 6.403-.102.739-2.472 18.331-.013 38.158.423 3.41 3.11 6.097 6.521 6.52 6.721.835 13.183 1.113 18.821 1.113 10.987 0 18.836-1.059 19.324-1.126 3.328-.461 5.944-3.076 6.404-6.403.103-.74 2.474-18.333.014-38.158zm-14.316 30.263c-5.215.379-13.409.697-22.466.014-.685-9.068-.365-17.269.014-22.486 5.214-.379 13.409-.696 22.466-.015.685 9.069.366 17.269-.014 22.487z"/><path d="m385.913 275.607c-19.824-2.463-37.407-.09-38.146.013-3.328.461-5.945 3.076-6.404 6.403-.102.739-2.472 18.332-.013 38.158.423 3.41 3.109 6.097 6.52 6.52 6.721.835 13.183 1.113 18.821 1.113 10.988 0 18.837-1.059 19.325-1.126 3.328-.461 5.944-3.076 6.404-6.403.102-.739 2.472-18.331.013-38.158-.422-3.41-3.109-6.097-6.52-6.52zm-7.795 36.783c-5.215.38-13.408.699-22.466.015-.685-9.072-.365-17.275.014-22.492 5.204-.38 13.382-.699 22.466-.011.684 9.07.365 17.271-.014 22.488z"/><path d="m385.913 346.907c-19.82-2.462-37.407-.09-38.147.013-3.328.461-5.944 3.076-6.404 6.403-.102.739-2.472 18.331-.013 38.158.423 3.41 3.11 6.097 6.52 6.52 6.722.835 13.184 1.113 18.821 1.113 10.988 0 18.836-1.059 19.325-1.126 3.328-.461 5.945-3.076 6.404-6.403.102-.739 2.472-18.332.013-38.158-.421-3.411-3.108-6.097-6.519-6.52zm-7.795 36.788c-5.203.381-13.381.701-22.466.011-.685-9.069-.365-17.271.014-22.488 5.214-.379 13.408-.699 22.466-.015.685 9.072.365 17.275-.014 22.492z"/><path d="m385.913 418.206c-19.824-2.464-37.407-.09-38.146.013-3.328.461-5.944 3.076-6.404 6.403-.102.739-2.472 18.331-.013 38.158.423 3.41 3.11 6.097 6.52 6.52 6.722.835 13.184 1.113 18.821 1.113 10.988 0 18.836-1.059 19.325-1.126 3.328-.461 5.944-3.076 6.404-6.403.102-.739 2.472-18.331.013-38.158-.422-3.411-3.109-6.097-6.52-6.52zm-7.795 36.787c-5.203.381-13.381.701-22.466.011-.685-9.072-.365-17.276.014-22.492 5.204-.38 13.382-.7 22.466-.011.685 9.072.365 17.276-.014 22.492z"/><path d="m459.767 418.206c-19.822-2.462-37.407-.089-38.146.013-3.328.461-5.944 3.076-6.404 6.403-.103.739-2.473 18.331-.014 38.158.423 3.41 3.11 6.097 6.52 6.52 6.722.835 13.184 1.113 18.821 1.113 10.987 0 18.836-1.059 19.324-1.126 3.328-.461 5.944-3.076 6.404-6.403.102-.739 2.473-18.331.013-38.158-.42-3.411-3.107-6.097-6.518-6.52zm-7.795 36.787c-5.203.381-13.381.701-22.465.011-.685-9.072-.365-17.276.014-22.492 5.203-.38 13.383-.699 22.465-.011.685 9.072.365 17.276-.014 22.492z"/><path d="m466.326 282.509c-.258-3.57-3.005-6.461-6.558-6.901-19.822-2.463-37.408-.09-38.146.013-3.491.483-6.175 3.329-6.452 6.842-.041.522-4.07 52.963-.003 108.642.261 3.568 3.006 6.456 6.558 6.897 6.722.835 13.184 1.113 18.821 1.113 10.987 0 18.836-1.059 19.324-1.126 3.524-.487 6.222-3.383 6.458-6.932 3.719-55.837.035-108.028-.002-108.548zm-14.576 101.196c-5.186.37-13.194.668-22.044.014-2.566-41.037-.851-79.211.011-93.815 5.176-.369 13.175-.671 22.023-.019.79 14.602 2.353 52.673.01 93.82z"/><path d="m119.786 462.78c.452 3.647 3.48 6.428 7.152 6.571.534.021 36.399 1.386 90.658 1.386 27.313 0 59.291-.346 93.763-1.383 3.659-.11 6.705-2.845 7.206-6.471.102-.739 2.473-18.331.013-38.158-.455-3.672-3.521-6.463-7.219-6.574-102.949-3.096-183.619-.029-184.422.003-3.633.142-6.641 2.867-7.139 6.468-.101.739-2.471 18.331-.012 38.158zm14.287-29.856c20.609-.63 87.623-2.266 170.238.03.623 8.641.342 16.455-.017 21.598-82.611 2.295-149.651.658-170.237.028-.627-8.668-.344-16.509.016-21.656z"/><ellipse cx="193.931" cy="203.724" rx="7.503" ry="7.5"/><ellipse cx="318.067" cy="203.724" rx="7.503" ry="7.5"/></g></svg>