<?xml version="1.0" encoding="iso-8859-1"?>
<!-- Generator: Adobe Illustrator 19.0.0, SVG Export Plug-In . SVG Version: 6.00 Build 0)  -->
<svg version="1.1" id="Layer_1" xmlns="http://www.w3.org/2000/svg" xmlns:xlink="http://www.w3.org/1999/xlink" x="0px" y="0px"
	 viewBox="0 0 512.001 512.001" style="enable-background:new 0 0 512.001 512.001;" xml:space="preserve">
<path style="fill:#E8E6D9;" d="M351.912,158.284l-125.876-5.994c-2.315-0.11-4.575,0.732-6.253,2.332
	c-1.669,1.588-2.628,3.817-2.628,6.135v23.976c0,4.218,3.103,7.796,7.277,8.391l167.835,23.976c2.692,0.385,5.344-0.547,7.195-2.398
	c0.633-0.633,1.172-1.372,1.587-2.203c1.632-3.264,0.992-7.204-1.588-9.785l-41.959-41.959
	C356.012,159.267,354.018,158.385,351.912,158.284z"/>
<path style="fill:#11BBA3;" d="M433.971,101.676c-13.025,0-26.049-4.958-35.965-14.874l0,0c-19.83-19.831-19.83-52.098,0-71.929
	c19.832-19.831,52.097-19.832,71.931,0c19.83,19.831,19.83,52.098,0,71.929C460.02,96.718,446.996,101.676,433.971,101.676z
	 M409.995,74.815c13.222,13.221,34.733,13.22,47.953,0c13.221-13.221,13.221-34.732,0-47.953c-13.222-13.222-34.733-13.221-47.953,0
	C396.775,40.083,396.775,61.594,409.995,74.815L409.995,74.815z"/>
<g>
	<path style="fill:#72CCC5;" d="M405.216,55.271L405.216,55.271l-31.9-28.355c-3.145-2.795-7.925-2.654-10.899,0.32l-83.918,83.918
		c-2.975,2.975-3.116,7.754-0.32,10.899l28.355,31.9l0,0l55.347-47.93L405.216,55.271z"/>
	<path style="fill:#72CCC5;" d="M481.211,122.821L443.297,89.12l0,0l-55.27,48.912l-47.643,54l0,0l33.702,37.914
		c2.992,3.366,8.372,3.527,11.559,0.339l95.906-95.906C484.738,131.193,484.577,125.814,481.211,122.821z"/>
</g>
<path style="fill:#11BBA3;" d="M307.216,127.921c-7.701-7.701-14.808-15.772-21.336-24.148l-7.379,7.379
	c-2.975,2.975-3.116,7.754-0.32,10.899l95.906,107.893c2.993,3.366,8.372,3.527,11.559,0.339l35.816-35.816
	C379.618,182.974,340.094,160.8,307.216,127.921z"/>
<polygon style="fill:#E8E6D9;" points="405.216,55.271 306.535,153.953 340.383,192.033 443.297,89.12 "/>
<path style="fill:#72CCC5;" d="M199.599,130.891c-4.327,0.001-7.947,3.62-7.948,7.948v67.816c0,4.389,3.558,7.947,7.947,7.947
	c10.75,0,21.33-4.266,29.029-11.707c0.171-0.164,0.337-0.328,0.504-0.497c12-12,15.635-30.374,9.024-45.956
	C231.671,141.161,216.176,130.892,199.599,130.891z"/>
<path style="fill:#DDDAC5;" d="M320.335,140.152l-13.802,13.802l33.85,38.081l22.017-22.017
	C347.649,161.626,333.548,151.672,320.335,140.152z"/>
<path style="fill:#11BBA3;" d="M191.652,200.612v6.043c0,4.389,3.558,7.947,7.947,7.947c10.75,0,21.33-4.266,29.029-11.707
	c0.171-0.164,0.337-0.328,0.504-0.497c4.937-4.937,8.455-10.954,10.429-17.411C225.674,196.2,208.55,201.412,191.652,200.612z"/>
<g>
	<path style="fill:#198A82;" d="M148.77,261.247c-6.406,0-10.167-7.508-6.405-12.643c5.237-7.15,11.087-13.945,17.385-20.196
		c3.115-3.091,8.147-3.072,11.238,0.043c3.092,3.115,3.072,8.147-0.042,11.238c-5.711,5.667-11.013,11.825-15.759,18.305
		C153.631,260.121,151.217,261.247,148.77,261.247z"/>
	<path style="fill:#198A82;" d="M112.112,259.255c-6.039,0-9.885-6.765-6.857-11.955c4.432-7.593,9.416-14.969,14.812-21.923
		c2.69-3.468,7.684-4.095,11.15-1.406c3.467,2.691,4.096,7.683,1.405,11.15c-4.97,6.404-9.56,13.199-13.642,20.191
		C117.505,257.844,114.845,259.255,112.112,259.255z M143.205,219.187c-6.971,0-10.525-8.715-5.587-13.598
		c6.251-6.181,12.973-12.01,19.98-17.323c3.5-2.653,8.482-1.966,11.134,1.531c2.651,3.498,1.966,8.482-1.531,11.134
		c-6.456,4.894-12.65,10.263-18.408,15.959C147.245,218.423,145.224,219.187,143.205,219.187z"/>
	<path style="fill:#198A82;" d="M72.088,257.921c-5.754,0-9.636-6.197-7.168-11.37c3.76-7.882,8.009-15.645,12.626-23.073
		c2.318-3.728,7.219-4.87,10.945-2.553c3.728,2.318,4.871,7.218,2.553,10.946c-4.308,6.929-8.271,14.17-11.778,21.522
		C77.903,256.251,75.056,257.921,72.088,257.921z M98.888,214.817c-6.529,0-10.254-7.767-6.238-12.865
		c5.4-6.856,11.247-13.491,17.382-19.724c3.078-3.13,8.11-3.167,11.238-0.088c3.127,3.079,3.167,8.11,0.088,11.238
		c-5.725,5.817-11.184,12.01-16.224,18.409C103.568,213.778,101.24,214.817,98.888,214.817z M134.503,178.654
		c-3.468,0-6.618-2.335-7.617-5.658c-0.917-3.052,0.125-6.444,2.598-8.455c6.778-5.513,13.938-10.704,21.278-15.431
		c3.691-2.375,8.608-1.311,10.984,2.379c2.376,3.69,1.311,8.608-2.379,10.984c-6.849,4.411-13.53,9.256-19.856,14.399
		C138.038,178.072,136.264,178.654,134.503,178.654z"/>
</g>
<path style="fill:#66BF00;" d="M77.408,269.796c-2.928-4.023-8.998-4.339-12.33-0.645c-5.583,6.192-33.48,38.009-34.435,56.26
	c-0.527,10.035,2.886,19.672,9.609,27.139c6.724,7.467,15.953,11.869,25.986,12.394c0.674,0.036,1.346,0.054,2.014,0.054
	c9.303,0,18.159-3.392,25.124-9.664c7.467-6.723,11.869-15.951,12.394-25.985C106.729,311.097,82.312,276.539,77.408,269.796z"/>
<path style="fill:#58AB23;" d="M76.2,355.403c-0.67,0-1.341-0.018-2.014-0.054c-10.035-0.526-19.263-4.927-25.986-12.394
	s-10.135-17.105-9.609-27.139c0.639-12.188,13.285-30.416,23.284-43.032c-9.178,10.606-30.399,36.748-31.232,52.628
	c-0.527,10.035,2.886,19.672,9.609,27.139c6.724,7.467,15.953,11.869,25.986,12.394c0.674,0.036,1.346,0.054,2.014,0.054
	c9.303,0,18.159-3.392,25.124-9.664c2.976-2.68,5.457-5.763,7.408-9.132C93.903,352.172,85.268,355.403,76.2,355.403z"/>
<path style="fill:#66BF00;" d="M167.993,313.749c-1.94-4.573-7.787-6.259-11.866-3.41c-6.835,4.774-41.188,29.478-46.235,47.044
	c-5.729,19.935,5.828,40.814,25.762,46.544c3.459,0.994,6.944,1.468,10.374,1.468c16.348,0,31.434-10.753,36.169-27.23
	C187.246,360.598,171.251,321.424,167.993,313.749z"/>
<path style="fill:#58AB23;" d="M157.486,395.085c-3.43,0-6.915-0.473-10.374-1.468c-19.935-5.729-31.493-26.608-25.762-46.544
	c2.001-6.964,8.612-15.047,16.283-22.568c-11.679,9.761-24.773,22.551-27.74,32.879c-5.729,19.935,5.828,40.814,25.762,46.544
	c3.459,0.994,6.944,1.468,10.374,1.468c12.02,0,23.352-5.818,30.395-15.446C170.749,393.252,164.226,395.085,157.486,395.085z"/>
<path style="fill:#508913;" d="M158.22,350.219c-0.189-4.386-3.893-7.768-8.281-7.599c-4.385,0.189-7.787,3.896-7.599,8.281
	c0.019,0.424,1.174,40.755-45.303,61.318c-2.665-8.694-5.656-16.737-8.506-24.398c-8.584-23.074-15.996-43.003-12.707-70.919
	c0.514-4.359-2.603-8.308-6.962-8.822c-4.366-0.509-8.31,2.603-8.822,6.963c-3.737,31.723,4.681,54.357,13.595,78.32
	c7.543,20.28,15.344,41.251,15.961,69.743c0.093,4.33,3.632,7.776,7.942,7.776c0.058,0,0.117,0,0.175-0.002
	c4.389-0.094,7.869-3.729,7.773-8.117c-0.28-12.917-1.94-24.457-4.317-35.021c29.518-12.335,43.46-31.651,49.99-46.09
	C158.753,364.857,158.246,350.808,158.22,350.219z"/>
<path style="fill:#B9873C;" d="M98.406,453.015c-31.88,0-59.175,19.561-70.578,47.331c-2.282,5.559,1.856,11.655,7.866,11.655
	h125.426c6.009,0,10.148-6.096,7.866-11.655C157.581,472.575,130.285,453.015,98.406,453.015z"/>
<g>
</g>
<g>
</g>
<g>
</g>
<g>
</g>
<g>
</g>
<g>
</g>
<g>
</g>
<g>
</g>
<g>
</g>
<g>
</g>
<g>
</g>
<g>
</g>
<g>
</g>
<g>
</g>
<g>
</g>
</svg>
